STARTFONT 2.1
COMMENT
COMMENT Converted from OpenType font "Q:\font stuff\winfont\Maetl Light.ttf" by "otf2bdf 3.0".
COMMENT
FONT -FreeType-Maetl-Medium-R-Normal--30-300-72-72-P-182-ISO10646-1
SIZE 30 72 72
FONTBOUNDINGBOX 39 41 -4 -8
STARTPROPERTIES 19
FOUNDRY "FreeType"
FAMILY_NAME "Maetl"
WEIGHT_NAME "Medium"
SLANT "R"
SETWIDTH_NAME "Normal"
ADD_STYLE_NAME ""
PIXEL_SIZE 30
POINT_SIZE 300
RESOLUTION_X 72
RESOLUTION_Y 72
SPACING "P"
AVERAGE_WIDTH 182
CHARSET_REGISTRY "ISO10646"
CHARSET_ENCODING "1"
FONT_ASCENT 32
FONT_DESCENT 8
COPYRIGHT "Copyright 2002 YouWorkForThem.  All Rights Reserved. http://www.youworkforthem.com.  YWFT Administration Contact: info@youworkforthem.com"
_OTF_FONTFILE "Q:\font stuff\winfont\Maetl Light.ttf"
_OTF_PSNAME "MaetlLight"
ENDPROPERTIES
CHARS 246
STARTCHAR 0020
ENCODING 32
SWIDTH 300 0
DWIDTH 9 0
BBX 0 0 0 0
BITMAP
ENDCHAR
STARTCHAR 0021
ENCODING 33
SWIDTH 233 0
DWIDTH 7 0
BBX 3 22 2 0
BITMAP
E0
E0
E0
E0
E0
E0
E0
E0
E0
E0
E0
E0
E0
E0
E0
00
00
00
00
E0
E0
E0
ENDCHAR
STARTCHAR 0022
ENCODING 34
SWIDTH 433 0
DWIDTH 13 0
BBX 9 6 2 16
BITMAP
E380
E380
E380
E380
E380
6180
ENDCHAR
STARTCHAR 0023
ENCODING 35
SWIDTH 700 0
DWIDTH 21 0
BBX 17 17 2 2
BITMAP
0E3800
0E3800
0E3800
FFFF80
FFFF80
FFFF80
0E3800
0E3800
0E3800
0E3800
FFFF80
FFFF80
FFFF80
0E3800
0E3800
0E3800
0E3800
ENDCHAR
STARTCHAR 0024
ENCODING 36
SWIDTH 866 0
DWIDTH 26 0
BBX 22 26 2 -2
BITMAP
007000
007000
007000
007000
1FFFE0
3FFFF0
7FFFFC
E0001C
E0001C
E00000
E00000
E00000
7FFFE0
3FFFF0
1FFFF8
00001C
00001C
00001C
E0001C
E0001C
7FFFF8
3FFFF0
1FFFE0
007000
007000
007000
ENDCHAR
STARTCHAR 0025
ENCODING 37
SWIDTH 866 0
DWIDTH 26 0
BBX 22 22 2 0
BITMAP
1E0070
3F0070
738070
E1C0F0
C0C1E0
C0C3C0
C0C780
61CF00
339E00
3F3C00
1E7800
00F000
01E3E0
03C7F0
078F38
0F1C1C
1E180C
3E180C
7C1C1C
780E38
7007F0
7003E0
ENDCHAR
STARTCHAR 0026
ENCODING 38
SWIDTH 900 0
DWIDTH 27 0
BBX 23 22 2 0
BITMAP
1FFF00
3FFF00
7FFF00
E00000
E00000
E00000
E000E0
E000E0
6000E0
2000E0
1FFFFE
1FFFFE
3FFFFE
6000E0
E000E0
E000E0
E000E0
E000E0
E000E0
7FFFE0
3FFFC0
1FFF00
ENDCHAR
STARTCHAR 0027
ENCODING 39
SWIDTH 233 0
DWIDTH 7 0
BBX 3 6 2 16
BITMAP
E0
E0
E0
E0
E0
60
ENDCHAR
STARTCHAR 0028
ENCODING 40
SWIDTH 366 0
DWIDTH 11 0
BBX 7 29 2 -4
BITMAP
1E
3E
7E
E0
E0
E0
E0
E0
E0
E0
E0
E0
E0
E0
E0
E0
E0
E0
E0
E0
E0
E0
E0
E0
E0
E0
7E
3E
1E
ENDCHAR
STARTCHAR 0029
ENCODING 41
SWIDTH 366 0
DWIDTH 11 0
BBX 6 29 2 -4
BITMAP
F0
F8
F8
1C
1C
1C
1C
1C
1C
1C
1C
1C
1C
1C
1C
1C
1C
1C
1C
1C
1C
1C
1C
1C
1C
1C
F8
F8
F0
ENDCHAR
STARTCHAR 002A
ENCODING 42
SWIDTH 700 0
DWIDTH 21 0
BBX 17 15 2 7
BITMAP
00C000
01C000
F1C380
F9C780
7DCF00
3FDE00
1FFC00
0FF800
0FFC00
1FDE00
3DCF00
79C780
F1C380
E1C180
00C000
ENDCHAR
STARTCHAR 002B
ENCODING 43
SWIDTH 566 0
DWIDTH 17 0
BBX 13 12 2 5
BITMAP
0700
0700
0700
0700
0700
FFF8
FFF8
FFF8
0700
0700
0700
0700
ENDCHAR
STARTCHAR 002C
ENCODING 44
SWIDTH 233 0
DWIDTH 7 0
BBX 3 5 2 -2
BITMAP
E0
E0
60
60
20
ENDCHAR
STARTCHAR 002D
ENCODING 45
SWIDTH 466 0
DWIDTH 14 0
BBX 10 3 2 9
BITMAP
FFC0
FFC0
FFC0
ENDCHAR
STARTCHAR 002E
ENCODING 46
SWIDTH 233 0
DWIDTH 7 0
BBX 3 3 2 0
BITMAP
E0
E0
E0
ENDCHAR
STARTCHAR 002F
ENCODING 47
SWIDTH 800 0
DWIDTH 24 0
BBX 19 22 2 0
BITMAP
0000E0
0000E0
0000E0
0001E0
0003C0
000780
000F00
001E00
003C00
007800
00F000
01E000
03C000
078000
0F0000
1E0000
3C0000
7C0000
F80000
F00000
E00000
E00000
ENDCHAR
STARTCHAR 0030
ENCODING 48
SWIDTH 833 0
DWIDTH 25 0
BBX 20 22 2 0
BITMAP
1FFF80
3FFFC0
7FFFE0
E00070
E00070
E00070
E00070
E00070
E00070
E00070
E00070
E00070
E00070
E00070
E00070
E00070
E00070
E00070
E00070
7FFFE0
3FFFC0
1FFFC0
ENDCHAR
STARTCHAR 0031
ENCODING 49
SWIDTH 466 0
DWIDTH 14 0
BBX 10 22 3 0
BITMAP
FC00
FC00
FC00
1C00
1C00
1C00
1C00
1C00
1C00
1C00
1C00
1C00
1C00
1C00
1C00
1C00
1C00
1C00
1C00
FFC0
FFC0
FFC0
ENDCHAR
STARTCHAR 0032
ENCODING 50
SWIDTH 833 0
DWIDTH 25 0
BBX 20 22 2 0
BITMAP
FFFF80
FFFFC0
FFFFE0
000070
000070
000070
000070
000070
000070
000070
1FFFE0
3FFFC0
7FFFC0
E00000
E00000
E00000
E00000
E00000
E00000
FFFFF0
FFFFF0
FFFFF0
ENDCHAR
STARTCHAR 0033
ENCODING 51
SWIDTH 800 0
DWIDTH 24 0
BBX 19 22 2 0
BITMAP
FFFF00
FFFF80
FFFFC0
0000E0
0000E0
0000E0
0000E0
0000E0
0000E0
0000E0
FFFFC0
FFFFC0
FFFFE0
0000E0
0000E0
0000E0
0000E0
0000E0
0000E0
FFFFC0
FFFF80
FFFF00
ENDCHAR
STARTCHAR 0034
ENCODING 52
SWIDTH 866 0
DWIDTH 26 0
BBX 22 22 2 0
BITMAP
0079C0
00F1C0
01E1C0
03C1C0
0781C0
0F01C0
1E01C0
3C01C0
7801C0
F001C0
F001C0
E001C0
E001C0
FFFFFC
FFFFFC
FFFFFC
0001C0
0001C0
0001C0
0001C0
0001C0
0001C0
ENDCHAR
STARTCHAR 0035
ENCODING 53
SWIDTH 800 0
DWIDTH 24 0
BBX 19 22 2 0
BITMAP
FFFFE0
FFFFE0
FFFFE0
E00000
E00000
E00000
E00000
E00000
E00000
FFFF00
FFFF80
FFFFE0
0000E0
0000E0
0000E0
0000E0
0000E0
0000E0
0000E0
FFFFE0
FFFFC0
FFFF00
ENDCHAR
STARTCHAR 0036
ENCODING 54
SWIDTH 833 0
DWIDTH 25 0
BBX 20 22 2 0
BITMAP
1FFF80
3FFF80
7FFF80
E00000
E00000
E00000
E00000
E00000
E00000
E7FFC0
EFFFE0
FFFFF0
E00070
E00070
E00070
E00070
E00070
E00070
E00070
7FFFF0
3FFFE0
1FFFC0
ENDCHAR
STARTCHAR 0037
ENCODING 55
SWIDTH 766 0
DWIDTH 23 0
BBX 18 22 2 0
BITMAP
FFFFC0
FFFFC0
FFFFC0
0003C0
000780
000F80
001F00
003E00
007C00
00F800
01F000
03E000
03C000
038000
038000
038000
038000
038000
038000
038000
038000
038000
ENDCHAR
STARTCHAR 0038
ENCODING 56
SWIDTH 833 0
DWIDTH 25 0
BBX 20 22 2 0
BITMAP
1FFF80
3FFFC0
7FFFE0
E00070
E00070
E00070
E00070
E00070
E00070
600070
3FFFE0
3FFFE0
7FFFF0
E00070
E00070
E00070
E00070
E00070
E00070
7FFFE0
3FFFC0
1FFFC0
ENDCHAR
STARTCHAR 0039
ENCODING 57
SWIDTH 833 0
DWIDTH 25 0
BBX 20 22 2 0
BITMAP
1FFF80
3FFFC0
7FFFE0
E00070
E00070
E00070
E00070
E00070
E00070
E00070
E00070
7FFFF0
3FFF70
1FFE70
000070
000070
000070
000070
000070
0FFFE0
0FFFC0
0FFFC0
ENDCHAR
STARTCHAR 003A
ENCODING 58
SWIDTH 233 0
DWIDTH 7 0
BBX 3 12 2 0
BITMAP
E0
E0
E0
00
00
00
00
00
00
E0
E0
E0
ENDCHAR
STARTCHAR 003B
ENCODING 59
SWIDTH 233 0
DWIDTH 7 0
BBX 3 14 2 -2
BITMAP
E0
E0
E0
00
00
00
00
00
00
E0
E0
60
60
20
ENDCHAR
STARTCHAR 003C
ENCODING 60
SWIDTH 433 0
DWIDTH 13 0
BBX 9 14 2 4
BITMAP
0180
0380
0780
0F00
3E00
7C00
F800
F800
7C00
3E00
1F00
0F80
0780
0180
ENDCHAR
STARTCHAR 003D
ENCODING 61
SWIDTH 600 0
DWIDTH 18 0
BBX 14 10 2 6
BITMAP
FFFC
FFFC
FFFC
0000
0000
0000
0000
FFFC
FFFC
FFFC
ENDCHAR
STARTCHAR 003E
ENCODING 62
SWIDTH 433 0
DWIDTH 13 0
BBX 9 14 2 4
BITMAP
E000
F000
F800
7C00
1E00
0F00
0780
0780
0F00
1E00
7C00
F800
F000
E000
ENDCHAR
STARTCHAR 003F
ENCODING 63
SWIDTH 666 0
DWIDTH 20 0
BBX 16 22 2 0
BITMAP
FFF8
FFFC
FFFE
0007
0007
0007
0007
0007
0007
0007
01FE
03FC
07FC
0E00
0E00
0000
0000
0000
0000
0E00
0E00
0E00
ENDCHAR
STARTCHAR 0040
ENCODING 64
SWIDTH 766 0
DWIDTH 23 0
BBX 18 22 2 0
BITMAP
07FE00
0FFF00
0FFF80
1E01C0
3C01C0
7801C0
F079C0
E0FDC0
E1FFC0
E381C0
E381C0
E381C0
E38180
E1FF00
E0FE00
F07C00
F80000
7C0000
3E0000
1FFC00
0FFC00
07FC00
ENDCHAR
STARTCHAR 0041
ENCODING 65
SWIDTH 900 0
DWIDTH 27 0
BBX 23 22 2 0
BITMAP
003800
007C00
00FE00
01EF00
03C780
07C3C0
0F81E0
1F00F0
3E0078
7C003C
F8001E
F0000E
E0000E
FFFFFE
FFFFFE
FFFFFE
E0000E
E0000E
E0000E
E0000E
E0000E
E0000E
ENDCHAR
STARTCHAR 0042
ENCODING 66
SWIDTH 900 0
DWIDTH 27 0
BBX 23 22 2 0
BITMAP
FFFFF0
FFFFF8
FFFFFC
E0000E
E0000E
E0000E
E0000E
E0001E
E0003E
E0007C
FFFFF8
FFFFF0
FFFFF8
E0003C
E0001E
E0000E
E0000E
E0000E
E0000E
FFFFFC
FFFFF8
FFFFF0
ENDCHAR
STARTCHAR 0043
ENCODING 67
SWIDTH 900 0
DWIDTH 27 0
BBX 23 22 2 0
BITMAP
1FFFF0
3FFFF8
7FFFFC
E0000E
E0000E
E0000E
E0000E
E00000
E00000
E00000
E00000
E00000
E00000
E00000
E00000
E00000
E0000E
E0000E
E0000E
7FFFFC
3FFFF8
1FFFF0
ENDCHAR
STARTCHAR 0044
ENCODING 68
SWIDTH 900 0
DWIDTH 27 0
BBX 23 22 2 0
BITMAP
FFFFF0
FFFFF8
FFFFFC
E0000E
E0000E
E0000E
E0000E
E0000E
E0000E
E0000E
E0000E
E0000E
E0000E
E0000E
E0000E
E0000E
E0000E
E0000E
E0000E
FFFFFC
FFFFF8
FFFFF0
ENDCHAR
STARTCHAR 0045
ENCODING 69
SWIDTH 833 0
DWIDTH 25 0
BBX 21 22 2 0
BITMAP
FFFFF8
FFFFF8
FFFFF8
E00000
E00000
E00000
E00000
E00000
E00000
E00000
FFFFF8
FFFFF8
FFFFF8
E00000
E00000
E00000
E00000
E00000
E00000
FFFFF8
FFFFF8
FFFFF8
ENDCHAR
STARTCHAR 0046
ENCODING 70
SWIDTH 766 0
DWIDTH 23 0
BBX 18 22 2 0
BITMAP
FFFFC0
FFFFC0
FFFFC0
E00000
E00000
E00000
E00000
E00000
E00000
E00000
FFFFC0
FFFFC0
FFFFC0
E00000
E00000
E00000
E00000
E00000
E00000
E00000
E00000
E00000
ENDCHAR
STARTCHAR 0047
ENCODING 71
SWIDTH 900 0
DWIDTH 27 0
BBX 23 22 2 0
BITMAP
1FFFF0
3FFFF8
7FFFFC
E0000E
E0000E
E0000E
E0000E
E00000
E00000
E00000
E00000
E007FE
E007FE
E007FE
E0000E
E0000E
E0000E
E0000E
E0000E
7FFFFC
3FFFF8
1FFFF0
ENDCHAR
STARTCHAR 0048
ENCODING 72
SWIDTH 900 0
DWIDTH 27 0
BBX 23 22 2 0
BITMAP
E0000E
E0000E
E0000E
E0000E
E0000E
E0000E
E0000E
E0000E
E0000E
E0000E
FFFFFE
FFFFFE
FFFFFE
E0000E
E0000E
E0000E
E0000E
E0000E
E0000E
E0000E
E0000E
E0000E
ENDCHAR
STARTCHAR 0049
ENCODING 73
SWIDTH 566 0
DWIDTH 17 0
BBX 13 22 2 0
BITMAP
FFF8
FFF8
FFF8
0700
0700
0700
0700
0700
0700
0700
0700
0700
0700
0700
0700
0700
0700
0700
0700
FFF8
FFF8
FFF8
ENDCHAR
STARTCHAR 004A
ENCODING 74
SWIDTH 866 0
DWIDTH 26 0
BBX 22 22 2 0
BITMAP
0007FC
0007FC
0007FC
00001C
00001C
00001C
00001C
00001C
00001C
00001C
00001C
00001C
00001C
00001C
00001C
00001C
E0001C
E0001C
E0001C
7FFFF8
3FFFF0
1FFFE0
ENDCHAR
STARTCHAR 004B
ENCODING 75
SWIDTH 866 0
DWIDTH 26 0
BBX 22 22 2 0
BITMAP
E0003C
E0007C
E000F8
E000F0
E001E0
E003C0
E00780
E00F00
E01E00
E03C00
FFF800
FFF000
FFF800
E03C00
E01E00
E00F00
E00780
E003C0
E001E0
E000F8
E0007C
E0003C
ENDCHAR
STARTCHAR 004C
ENCODING 76
SWIDTH 766 0
DWIDTH 23 0
BBX 18 22 2 0
BITMAP
E00000
E00000
E00000
E00000
E00000
E00000
E00000
E00000
E00000
E00000
E00000
E00000
E00000
E00000
E00000
E00000
E00000
E00000
E00000
FFFFC0
FFFFC0
FFFFC0
ENDCHAR
STARTCHAR 004D
ENCODING 77
SWIDTH 966 0
DWIDTH 29 0
BBX 24 22 2 0
BITMAP
F0000F
F8001F
FC003F
FE007F
EF00FF
EF80F7
E7C1E7
E3E3C7
E1F787
E0FF07
E07E07
E03C07
E01807
E00007
E00007
E00007
E00007
E00007
E00007
E00007
E00007
E00007
ENDCHAR
STARTCHAR 004E
ENCODING 78
SWIDTH 966 0
DWIDTH 29 0
BBX 24 22 2 0
BITMAP
F00007
F80007
FC0007
FE0007
EF0007
E78007
E3C007
E3E007
E1F007
E0F807
E07C07
E03E07
E01F07
E00F07
E00787
E003C7
E001E7
E000F7
E0007F
E0003F
E0001F
E0000F
ENDCHAR
STARTCHAR 004F
ENCODING 79
SWIDTH 900 0
DWIDTH 27 0
BBX 23 22 2 0
BITMAP
1FFFF0
3FFFF8
7FFFFC
E0000E
E0000E
E0000E
E0000E
E0000E
E0000E
E0000E
E0000E
E0000E
E0000E
E0000E
E0000E
E0000E
E0000E
E0000E
E0000E
7FFFFC
3FFFF8
1FFFF0
ENDCHAR
STARTCHAR 0050
ENCODING 80
SWIDTH 833 0
DWIDTH 25 0
BBX 20 22 2 0
BITMAP
FFFF80
FFFFC0
FFFFE0
E00070
E00070
E00070
E00070
E00070
E00070
E00070
E00070
E00070
E00070
FFFFE0
FFFFC0
FFFFC0
E00000
E00000
E00000
E00000
E00000
E00000
ENDCHAR
STARTCHAR 0051
ENCODING 81
SWIDTH 1000 0
DWIDTH 30 0
BBX 25 26 2 -4
BITMAP
1FFFF000
3FFFF800
7FFFFC00
E0000E00
E0000E00
E0000E00
E0000E00
E0000E00
E0000E00
E0000E00
E0000E00
E0000E00
E0000E00
E0000E00
E0000E00
E0000E00
E0000E00
E0000C00
E0000800
7FFFF800
3FFFF800
1FFFFC00
00001E00
00000F00
00000780
00000380
ENDCHAR
STARTCHAR 0052
ENCODING 82
SWIDTH 900 0
DWIDTH 27 0
BBX 23 22 2 0
BITMAP
FFFFF0
FFFFF8
FFFFFC
E0000E
E0000E
E0000E
E0000E
E0000E
E0000E
E0000E
FFFFFC
FFFFF8
FFFFF8
E01E00
E00F80
E007C0
E003E0
E001F0
E000F8
E0007C
E0003E
E0001E
ENDCHAR
STARTCHAR 0053
ENCODING 83
SWIDTH 900 0
DWIDTH 27 0
BBX 23 22 2 0
BITMAP
1FFFF0
3FFFF8
7FFFFC
E0000E
E0000E
E0000E
E0000E
E00000
E00000
E00000
7FFFF0
3FFFF8
1FFFFC
00000E
00000E
00000E
E0000E
E0000E
E0000E
7FFFFC
3FFFF8
1FFFF0
ENDCHAR
STARTCHAR 0054
ENCODING 84
SWIDTH 866 0
DWIDTH 26 0
BBX 22 22 2 0
BITMAP
FFFFFC
FFFFFC
FFFFFC
007000
007000
007000
007000
007000
007000
007000
007000
007000
007000
007000
007000
007000
007000
007000
007000
007000
007000
007000
ENDCHAR
STARTCHAR 0055
ENCODING 85
SWIDTH 900 0
DWIDTH 27 0
BBX 23 22 2 0
BITMAP
E0000E
E0000E
E0000E
E0000E
E0000E
E0000E
E0000E
E0000E
E0000E
E0000E
E0000E
E0000E
E0000E
E0000E
E0000E
E0000E
E0000E
E0000E
E0000E
7FFFFC
3FFFF8
1FFFF0
ENDCHAR
STARTCHAR 0056
ENCODING 86
SWIDTH 866 0
DWIDTH 26 0
BBX 22 22 2 0
BITMAP
E0001C
E0001C
E0001C
E0001C
E0001C
E0001C
E0001C
E0001C
E0001C
E0001C
E0001C
F0003C
780078
3C00F0
1E01E0
0F03C0
078780
03CF00
01FE00
00FC00
007800
003000
ENDCHAR
STARTCHAR 0057
ENCODING 87
SWIDTH 966 0
DWIDTH 29 0
BBX 24 22 2 0
BITMAP
E00007
E00007
E00007
E00007
E00007
E00007
E00007
E00007
E00007
E00007
E01C07
E03E07
E07F07
E0F787
E1E3C7
E3C1E7
E780F7
EF007F
FE003F
FC001F
78000F
300006
ENDCHAR
STARTCHAR 0058
ENCODING 88
SWIDTH 833 0
DWIDTH 25 0
BBX 20 22 2 0
BITMAP
E00070
E00070
F00070
F800F0
7C01E0
3E03C0
1F0780
0F8F00
07DF00
03FE00
01FC00
00F800
01FC00
03DE00
078F00
0F0780
1E03C0
3C01E0
7800F0
F00070
E00070
E00070
ENDCHAR
STARTCHAR 0059
ENCODING 89
SWIDTH 866 0
DWIDTH 26 0
BBX 22 22 2 0
BITMAP
E0001C
E0001C
F0001C
F0003C
780078
3C00F0
1E01E0
0F03C0
078F80
03DF00
01FE00
00FC00
007800
007000
007000
007000
007000
007000
007000
007000
007000
007000
ENDCHAR
STARTCHAR 005A
ENCODING 90
SWIDTH 800 0
DWIDTH 24 0
BBX 20 22 2 0
BITMAP
FFFFF0
FFFFF0
FFFFF0
0001E0
0003C0
000780
000F00
001E00
003C00
007800
00F000
01E000
03C000
078000
0F0000
1E0000
3C0000
780000
F00000
FFFFF0
FFFFF0
FFFFF0
ENDCHAR
STARTCHAR 005B
ENCODING 91
SWIDTH 366 0
DWIDTH 11 0
BBX 6 29 2 -4
BITMAP
FC
FC
FC
E0
E0
E0
E0
E0
E0
E0
E0
E0
E0
E0
E0
E0
E0
E0
E0
E0
E0
E0
E0
E0
E0
E0
FC
FC
FC
ENDCHAR
STARTCHAR 005C
ENCODING 92
SWIDTH 800 0
DWIDTH 24 0
BBX 19 22 2 0
BITMAP
E00000
E00000
F00000
F80000
780000
3C0000
1E0000
0F0000
078000
03C000
01E000
00F000
007800
003C00
001E00
000F00
000780
0003C0
0001E0
0000E0
0000E0
0000E0
ENDCHAR
STARTCHAR 005D
ENCODING 93
SWIDTH 366 0
DWIDTH 11 0
BBX 6 29 2 -4
BITMAP
FC
FC
FC
1C
1C
1C
1C
1C
1C
1C
1C
1C
1C
1C
1C
1C
1C
1C
1C
1C
1C
1C
1C
1C
1C
1C
FC
FC
FC
ENDCHAR
STARTCHAR 005E
ENCODING 94
SWIDTH 466 0
DWIDTH 14 0
BBX 10 8 2 13
BITMAP
0C00
1E00
3F00
7F80
7BC0
F1C0
E0C0
C040
ENDCHAR
STARTCHAR 005F
ENCODING 95
SWIDTH 900 0
DWIDTH 27 0
BBX 23 3 2 -4
BITMAP
FFFFFE
FFFFFE
FFFFFE
ENDCHAR
STARTCHAR 0060
ENCODING 96
SWIDTH 833 0
DWIDTH 25 0
BBX 9 6 3 19
BITMAP
F000
7800
3C00
1E00
0F00
0780
ENDCHAR
STARTCHAR 0061
ENCODING 97
SWIDTH 900 0
DWIDTH 27 0
BBX 23 17 2 0
BITMAP
1FFFC2
3FFFE6
7FFFFE
E0000E
E0000E
E0000E
E0000E
E0000E
E0000E
E0000E
E0000E
E0000E
E0000E
E0000E
7FFFFE
3FFFE6
1FFFC2
ENDCHAR
STARTCHAR 0062
ENCODING 98
SWIDTH 900 0
DWIDTH 27 0
BBX 23 24 2 0
BITMAP
E00000
E00000
E00000
E00000
E00000
E00000
E00000
E3FFF0
E7FFF8
EFFFFC
F0000E
E0000E
E0000E
E0000E
E0000E
E0000E
E0000E
E0000E
E0000E
E0000E
E0000E
7FFFFC
3FFFF8
1FFFF0
ENDCHAR
STARTCHAR 0063
ENCODING 99
SWIDTH 833 0
DWIDTH 25 0
BBX 21 17 2 0
BITMAP
1FFFF8
3FFFF8
7FFFF8
E00000
E00000
E00000
E00000
E00000
E00000
E00000
E00000
E00000
E00000
E00000
7FFFF8
3FFFF8
1FFFF8
ENDCHAR
STARTCHAR 0064
ENCODING 100
SWIDTH 900 0
DWIDTH 27 0
BBX 23 24 2 0
BITMAP
00000E
00000E
00000E
00000E
00000E
00000E
00000E
1FFFCE
3FFFEE
7FFFFE
E0000E
E0000E
E0000E
E0000E
E0000E
E0000E
E0000E
E0000E
E0000E
E0000E
E0000E
7FFFFE
3FFFE6
1FFFC2
ENDCHAR
STARTCHAR 0065
ENCODING 101
SWIDTH 866 0
DWIDTH 26 0
BBX 22 17 2 0
BITMAP
1FFFE0
3FFFF0
7FFFF8
E0001C
E0001C
E0001C
E0001C
FFFFFC
FFFFFC
FFFFFC
E00000
E00000
E00000
E00000
7FFFFC
3FFFFC
1FFFFC
ENDCHAR
STARTCHAR 0066
ENCODING 102
SWIDTH 666 0
DWIDTH 20 0
BBX 16 24 2 0
BITMAP
01FF
03FF
07FF
0E00
0E00
0E00
0E00
FFFF
FFFF
FFFF
0E00
0E00
0E00
0E00
0E00
0E00
0E00
0E00
0E00
0E00
0E00
0E00
0E00
0E00
ENDCHAR
STARTCHAR 0067
ENCODING 103
SWIDTH 900 0
DWIDTH 27 0
BBX 23 24 2 -7
BITMAP
1FFFC2
3FFFE6
7FFFFE
E0000E
E0000E
E0000E
E0000E
E0000E
E0000E
E0000E
E0000E
E0000E
E0000E
E0000E
7FFFFE
3FFFEE
1FFFCE
00000E
00000E
00000E
00000E
0FFFFC
0FFFF8
0FFFF0
ENDCHAR
STARTCHAR 0068
ENCODING 104
SWIDTH 866 0
DWIDTH 26 0
BBX 22 24 2 0
BITMAP
E00000
E00000
E00000
E00000
E00000
E00000
E00000
E3FFE0
E7FFF0
EFFFF8
F0001C
E0001C
E0001C
E0001C
E0001C
E0001C
E0001C
E0001C
E0001C
E0001C
E0001C
E0001C
E0001C
E0001C
ENDCHAR
STARTCHAR 0069
ENCODING 105
SWIDTH 366 0
DWIDTH 11 0
BBX 7 24 2 0
BITMAP
E0
E0
E0
00
00
00
00
E0
E0
E0
E0
E0
E0
E0
E0
E0
E0
E0
E0
E0
E0
7E
3E
1E
ENDCHAR
STARTCHAR 006A
ENCODING 106
SWIDTH 266 0
DWIDTH 8 0
BBX 10 31 -4 -7
BITMAP
01C0
01C0
01C0
0000
0000
0000
0000
01C0
01C0
01C0
01C0
01C0
01C0
01C0
01C0
01C0
01C0
01C0
01C0
01C0
01C0
01C0
01C0
01C0
01C0
01C0
01C0
01C0
FF80
FF00
FE00
ENDCHAR
STARTCHAR 006B
ENCODING 107
SWIDTH 833 0
DWIDTH 25 0
BBX 21 24 2 0
BITMAP
E00000
E00000
E00000
E00000
E00000
E00000
E00000
E00078
E000F0
E001E0
E003C0
E00780
E00F00
E01E00
FFFC00
FFF800
FFFC00
E01E00
E00F00
E00780
E003C0
E001E0
E000F0
E00078
ENDCHAR
STARTCHAR 006C
ENCODING 108
SWIDTH 366 0
DWIDTH 11 0
BBX 7 24 2 0
BITMAP
E0
E0
E0
E0
E0
E0
E0
E0
E0
E0
E0
E0
E0
E0
E0
E0
E0
E0
E0
E0
E0
7E
3E
1E
ENDCHAR
STARTCHAR 006D
ENCODING 109
SWIDTH 1200 0
DWIDTH 36 0
BBX 31 17 2 0
BITMAP
87FC3FF0
CFFE7FF8
FFFFFFFC
E003800E
E003800E
E003800E
E003800E
E003800E
E003800E
E003800E
E003800E
E003800E
E003800E
E003800E
E003800E
E003800E
E003800E
ENDCHAR
STARTCHAR 006E
ENCODING 110
SWIDTH 866 0
DWIDTH 26 0
BBX 22 17 2 0
BITMAP
C3FFE0
E7FFF0
EFFFF8
F0001C
E0001C
E0001C
E0001C
E0001C
E0001C
E0001C
E0001C
E0001C
E0001C
E0001C
E0001C
E0001C
E0001C
ENDCHAR
STARTCHAR 006F
ENCODING 111
SWIDTH 900 0
DWIDTH 27 0
BBX 23 17 2 0
BITMAP
1FFFF0
3FFFF8
7FFFFC
E0000E
E0000E
E0000E
E0000E
E0000E
E0000E
E0000E
E0000E
E0000E
E0000E
E0000E
7FFFFC
3FFFF8
1FFFF0
ENDCHAR
STARTCHAR 0070
ENCODING 112
SWIDTH 900 0
DWIDTH 27 0
BBX 23 24 2 -7
BITMAP
C7FFF0
CFFFF8
FFFFFC
E0000E
E0000E
E0000E
E0000E
E0000E
E0000E
E0000E
E0000E
E0000E
E0000E
E0000E
FFFFFC
E7FFF8
E3FFF0
E00000
E00000
E00000
E00000
E00000
E00000
E00000
ENDCHAR
STARTCHAR 0071
ENCODING 113
SWIDTH 900 0
DWIDTH 27 0
BBX 23 24 2 -7
BITMAP
1FFFF0
3FFFF8
7FFFFC
E0000E
E0000E
E0000E
E0000E
E0000E
E0000E
E0000E
E0000E
E0000E
E0000E
E0000E
7FFFFE
3FFFEE
1FFFCE
00000E
00000E
00000E
00000E
00000E
00000E
00000E
ENDCHAR
STARTCHAR 0072
ENCODING 114
SWIDTH 633 0
DWIDTH 19 0
BBX 15 17 2 0
BITMAP
87FE
CFFE
FFFE
E000
E000
E000
E000
E000
E000
E000
E000
E000
E000
E000
E000
E000
E000
ENDCHAR
STARTCHAR 0073
ENCODING 115
SWIDTH 833 0
DWIDTH 25 0
BBX 20 17 2 0
BITMAP
1FFFF0
3FFFF0
7FFFF0
E00000
E00000
E00000
E00000
7FFFC0
3FFFC0
1FFFE0
000070
000070
000070
000070
FFFFE0
FFFFC0
FFFFC0
ENDCHAR
STARTCHAR 0074
ENCODING 116
SWIDTH 766 0
DWIDTH 23 0
BBX 18 22 2 0
BITMAP
0E0000
0E0000
0E0000
0E0000
0E0000
FFFFC0
FFFFC0
FFFFC0
0E0000
0E0000
0E0000
0E0000
0E0000
0E0000
0E0000
0E0000
0E0000
0E0000
0E0000
07FFC0
03FFC0
01FFC0
ENDCHAR
STARTCHAR 0075
ENCODING 117
SWIDTH 866 0
DWIDTH 26 0
BBX 22 17 2 0
BITMAP
E0001C
E0001C
E0001C
E0001C
E0001C
E0001C
E0001C
E0001C
E0001C
E0001C
E0001C
E0001C
E0001C
E0001C
7FFFFC
3FFFCC
1FFF84
ENDCHAR
STARTCHAR 0076
ENCODING 118
SWIDTH 866 0
DWIDTH 26 0
BBX 22 17 2 0
BITMAP
E0001C
E0001C
E0001C
E0001C
E0001C
E0001C
F0003C
780078
3C00F0
1E01E0
0F03C0
078780
03CF00
01FE00
00FC00
007800
003000
ENDCHAR
STARTCHAR 0077
ENCODING 119
SWIDTH 1200 0
DWIDTH 36 0
BBX 31 17 2 0
BITMAP
E003800E
E003800E
E003800E
E003800E
E003800E
E003800E
E003800E
E003800E
E003800E
E003800E
E003800E
E003800E
E003800E
E003800E
7FFFFFFC
3FFE7FF8
1FFC3FF0
ENDCHAR
STARTCHAR 0078
ENCODING 120
SWIDTH 833 0
DWIDTH 25 0
BBX 21 17 2 0
BITMAP
F00078
7800F0
3C01E0
1E03C0
0F0780
078F00
03DE00
01FC00
00F800
01FC00
03DE00
078F00
0F0780
1E03C0
3C01E0
7800F0
F00078
ENDCHAR
STARTCHAR 0079
ENCODING 121
SWIDTH 866 0
DWIDTH 26 0
BBX 22 24 2 -7
BITMAP
E0001C
E0001C
E0001C
E0001C
E0001C
E0001C
E0001C
E0001C
E0001C
E0001C
E0001C
E0001C
E0001C
E0001C
7FFFFC
3FFFDC
1FFF9C
00001C
00001C
00001C
00001C
0FFFF8
0FFFF0
0FFFE0
ENDCHAR
STARTCHAR 007A
ENCODING 122
SWIDTH 833 0
DWIDTH 25 0
BBX 20 17 2 0
BITMAP
FFFFF0
FFFFF0
FFFFF0
000070
000070
000070
000070
1FFFE0
3FFFC0
7FFFC0
E00000
E00000
E00000
E00000
FFFFF0
FFFFF0
FFFFF0
ENDCHAR
STARTCHAR 007B
ENCODING 123
SWIDTH 433 0
DWIDTH 13 0
BBX 9 29 2 -4
BITMAP
0780
0F80
1F80
3800
3800
3800
3800
3800
3800
3800
3800
3800
7000
E000
E000
7000
3000
3800
3800
3800
3800
3800
3800
3800
3800
3800
1F80
0F80
0780
ENDCHAR
STARTCHAR 007C
ENCODING 124
SWIDTH 233 0
DWIDTH 7 0
BBX 3 23 2 0
BITMAP
E0
E0
E0
E0
E0
E0
E0
E0
E0
E0
E0
E0
E0
E0
E0
E0
E0
E0
E0
E0
E0
E0
E0
ENDCHAR
STARTCHAR 007D
ENCODING 125
SWIDTH 433 0
DWIDTH 13 0
BBX 9 29 2 -4
BITMAP
F000
F800
FC00
1C00
1C00
1C00
1C00
1C00
1C00
1C00
1C00
1C00
0F00
0380
0380
0700
0E00
1C00
1C00
1C00
1C00
1C00
1C00
1C00
1C00
1C00
F800
F800
F000
ENDCHAR
STARTCHAR 007E
ENCODING 126
SWIDTH 766 0
DWIDTH 23 0
BBX 18 7 2 8
BITMAP
1F0040
3F80C0
7BC1C0
F1E3C0
F0F780
E07F00
C03F00
ENDCHAR
STARTCHAR 00A0
ENCODING 160
SWIDTH 300 0
DWIDTH 9 0
BBX 0 0 0 0
BITMAP
ENDCHAR
STARTCHAR 00A1
ENCODING 161
SWIDTH 233 0
DWIDTH 7 0
BBX 3 22 2 -4
BITMAP
E0
E0
E0
00
00
00
00
E0
E0
E0
E0
E0
E0
E0
E0
E0
E0
E0
E0
E0
E0
E0
ENDCHAR
STARTCHAR 00A2
ENCODING 162
SWIDTH 866 0
DWIDTH 26 0
BBX 22 24 2 -1
BITMAP
007000
007000
007000
007000
1FFFE0
3FFFF0
7FFFF8
E0001C
E0001C
E00000
E00000
E00000
E00000
E00000
E00000
E0001C
E0001C
E0001C
7FFFF8
3FFFF0
1FFFE0
007000
007000
007000
ENDCHAR
STARTCHAR 00A3
ENCODING 163
SWIDTH 833 0
DWIDTH 25 0
BBX 21 22 2 0
BITMAP
01FF80
03FF80
07FF80
0E0000
0E0000
0E0000
0E0000
0E0000
0E0000
0E0000
FFFC00
FFFC00
FFFC00
0E0000
0E0000
0E0000
0E0000
0E0000
0E0000
FFFFF8
FFFFF8
FFFFF8
ENDCHAR
STARTCHAR 00A4
ENCODING 164
SWIDTH 1000 0
DWIDTH 30 0
BBX 25 22 2 0
BITMAP
07FFFC00
0FFFFE00
1FFFFF00
38000380
38000380
38000380
38000380
FFF80000
FFF80000
FFF80000
38000000
38000000
FFF80000
FFF80000
FFF80000
38000000
38000380
38000380
38000380
1FFFFF00
0FFFFE00
07FFFC00
ENDCHAR
STARTCHAR 00A5
ENCODING 165
SWIDTH 866 0
DWIDTH 26 0
BBX 22 22 2 0
BITMAP
E0001C
F0003C
F80078
7C00F0
3E01E0
1F03C0
0F0780
078F00
03DE00
01FC00
00F800
007000
007000
7FFFF8
7FFFF8
7FFFF8
007000
007000
007000
007000
007000
007000
ENDCHAR
STARTCHAR 00A6
ENCODING 166
SWIDTH 233 0
DWIDTH 7 0
BBX 3 22 2 0
BITMAP
E0
E0
E0
E0
E0
E0
E0
E0
E0
00
00
00
00
E0
E0
E0
E0
E0
E0
E0
E0
E0
ENDCHAR
STARTCHAR 00A7
ENCODING 167
SWIDTH 900 0
DWIDTH 27 0
BBX 23 24 2 -1
BITMAP
1FFFF0
3FFFF0
7FFFF0
E00000
E00000
E00000
E00000
7FFFF0
3FFFF8
7FFFFC
E0000E
E0000E
E0000E
E0000E
7FFFFC
3FFFF8
1FFFFC
00000E
00000E
00000E
00000E
0FFFFC
0FFFF8
0FFFF0
ENDCHAR
STARTCHAR 00A8
ENCODING 168
SWIDTH 800 0
DWIDTH 24 0
BBX 11 3 5 23
BITMAP
E0E0
E0E0
E0E0
ENDCHAR
STARTCHAR 00A9
ENCODING 169
SWIDTH 900 0
DWIDTH 27 0
BBX 23 22 2 0
BITMAP
1FFFF0
3FFFF8
7FFFFC
E0000E
E0000E
E0000E
E07F8E
E0FF8E
E1FF8E
E3800E
E3800E
E3800E
E3800E
E1FF8E
E0FF8E
E07F8E
E0000E
E0000E
E0000E
7FFFFC
3FFFF8
1FFFF0
ENDCHAR
STARTCHAR 00AA
ENCODING 170
SWIDTH 900 0
DWIDTH 27 0
BBX 23 17 2 5
BITMAP
1FFFC2
3FFFE6
7FFFFE
E0000E
E0000E
E0000E
E0000E
E0000E
E0000E
E0000E
E0000E
E0000E
E0000E
E0000E
7FFFFE
3FFFE6
1FFFC2
ENDCHAR
STARTCHAR 00AB
ENCODING 171
SWIDTH 666 0
DWIDTH 20 0
BBX 16 14 2 4
BITMAP
01C0
03C0
07C7
0F8F
3F1F
7E3E
FC7C
FC78
7E3C
3F1E
1F8F
0FC7
07C0
01C0
ENDCHAR
STARTCHAR 00AC
ENCODING 172
SWIDTH 600 0
DWIDTH 18 0
BBX 13 6 2 6
BITMAP
FFF8
FFF8
FFF8
0038
0038
0038
ENDCHAR
STARTCHAR 00AD
ENCODING 173
SWIDTH 466 0
DWIDTH 14 0
BBX 10 3 2 9
BITMAP
FFC0
FFC0
FFC0
ENDCHAR
STARTCHAR 00AE
ENCODING 174
SWIDTH 900 0
DWIDTH 27 0
BBX 23 22 2 0
BITMAP
1FFFF0
3FFFF8
7FFFFC
E0000E
E0000E
E0000E
E3FF0E
E3FF8E
E3838E
E3838E
E3838E
E3FF0E
E3FE0E
E39F0E
E38F8E
E3838E
E0000E
E0000E
E0000E
7FFFFC
3FFFF8
1FFFF0
ENDCHAR
STARTCHAR 00AF
ENCODING 175
SWIDTH 766 0
DWIDTH 23 0
BBX 10 3 3 22
BITMAP
FFC0
FFC0
FFC0
ENDCHAR
STARTCHAR 00B0
ENCODING 176
SWIDTH 466 0
DWIDTH 14 0
BBX 10 10 2 12
BITMAP
1E00
3F00
7F80
E1C0
E1C0
E1C0
E1C0
7F80
3F00
1E00
ENDCHAR
STARTCHAR 00B1
ENCODING 177
SWIDTH 566 0
DWIDTH 17 0
BBX 13 17 2 0
BITMAP
0700
0700
0700
0700
0700
FFF8
FFF8
FFF8
0700
0700
0700
0700
0700
0000
FFF8
FFF8
FFF8
ENDCHAR
STARTCHAR 00B4
ENCODING 180
SWIDTH 833 0
DWIDTH 25 0
BBX 9 6 3 19
BITMAP
0F80
1F00
3E00
7C00
F800
F000
ENDCHAR
STARTCHAR 00B5
ENCODING 181
SWIDTH 900 0
DWIDTH 27 0
BBX 23 24 2 -7
BITMAP
E0000E
E0000E
E0000E
E0000E
E0000E
E0000E
E0000E
E0000E
E0000E
E0000E
E0000E
E0000E
E0000E
E0000E
FFFFFE
E7FFE6
E3FFC2
E00000
E00000
E00000
E00000
E00000
E00000
E00000
ENDCHAR
STARTCHAR 00B6
ENCODING 182
SWIDTH 700 0
DWIDTH 21 0
BBX 17 22 2 0
BITMAP
1FFF80
3FFF80
7FFF80
E1C380
E1C380
E1C380
7FFF80
3FFF80
1FFF80
01C380
01C380
01C380
01C380
01C380
01C380
01C380
01C380
01C380
01C380
01C380
01C380
01C380
ENDCHAR
STARTCHAR 00B7
ENCODING 183
SWIDTH 233 0
DWIDTH 7 0
BBX 3 3 2 9
BITMAP
E0
E0
E0
ENDCHAR
STARTCHAR 00B8
ENCODING 184
SWIDTH 966 0
DWIDTH 29 0
BBX 9 7 5 -8
BITMAP
0600
0780
0780
0380
C380
FF00
7E00
ENDCHAR
STARTCHAR 00BA
ENCODING 186
SWIDTH 900 0
DWIDTH 27 0
BBX 23 17 2 5
BITMAP
1FFFF0
3FFFF8
7FFFFC
E0000E
E0000E
E0000E
E0000E
E0000E
E0000E
E0000E
E0000E
E0000E
E0000E
E0000E
7FFFFC
3FFFF8
1FFFF0
ENDCHAR
STARTCHAR 00BB
ENCODING 187
SWIDTH 666 0
DWIDTH 20 0
BBX 16 14 2 4
BITMAP
03C0
03E0
E3F0
F1F8
78FC
3C7E
1E3F
1E3F
3C7E
78FC
F1F8
E3F0
03E0
03C0
ENDCHAR
STARTCHAR 00BF
ENCODING 191
SWIDTH 666 0
DWIDTH 20 0
BBX 16 22 2 -4
BITMAP
0070
0070
0070
0000
0000
0000
0000
0070
0070
1FF0
3FE0
7FC0
E000
E000
E000
E000
E000
E000
E000
7FFF
3FFF
1FFF
ENDCHAR
STARTCHAR 00C0
ENCODING 192
SWIDTH 900 0
DWIDTH 27 0
BBX 23 30 2 0
BITMAP
07C000
03E000
01F000
00F800
007C00
001C00
000000
000000
003800
007C00
00FE00
01EF00
03C780
0783C0
0F01E0
1E00F0
3C0078
78003C
F0001E
E0000E
E0000E
FFFFFE
FFFFFE
FFFFFE
E0000E
E0000E
E0000E
E0000E
E0000E
E0000E
ENDCHAR
STARTCHAR 00C1
ENCODING 193
SWIDTH 900 0
DWIDTH 27 0
BBX 23 30 2 0
BITMAP
000780
000F00
001E00
003C00
007800
00F000
000000
000000
003800
007C00
00FE00
01EF00
03C780
0783C0
0F01E0
1E00F0
3C0078
78003C
F0001E
E0000E
E0000E
FFFFFE
FFFFFE
FFFFFE
E0000E
E0000E
E0000E
E0000E
E0000E
E0000E
ENDCHAR
STARTCHAR 00C2
ENCODING 194
SWIDTH 900 0
DWIDTH 27 0
BBX 23 29 2 0
BITMAP
003800
007C00
00FE00
01EF00
01C700
000000
000000
003800
007C00
00FE00
01EF00
03C780
0783C0
0F01E0
1E00F0
3C0078
78003C
F0001E
E0000E
E0000E
FFFFFE
FFFFFE
FFFFFE
E0000E
E0000E
E0000E
E0000E
E0000E
E0000E
ENDCHAR
STARTCHAR 00C3
ENCODING 195
SWIDTH 900 0
DWIDTH 27 0
BBX 23 30 2 1
BITMAP
0780C0
0FC1C0
1FE3C0
3CF780
387F00
303E00
000000
000000
003800
007C00
00FE00
01EF00
03C780
0783C0
0F01E0
1E00F0
3C0078
78003C
F0001E
E0000E
E0000E
FFFFFE
FFFFFE
FFFFFE
E0000E
E0000E
E0000E
E0000E
E0000E
E0000E
ENDCHAR
STARTCHAR 00C4
ENCODING 196
SWIDTH 900 0
DWIDTH 27 0
BBX 23 26 2 0
BITMAP
00E0E0
00E0E0
00E0E0
000000
003800
007C00
00FE00
01EF00
03C780
0783C0
0F01E0
1E00F0
3C0078
78003C
F0001E
E0000E
E0000E
FFFFFE
FFFFFE
FFFFFE
E0000E
E0000E
E0000E
E0000E
E0000E
E0000E
ENDCHAR
STARTCHAR 00C5
ENCODING 197
SWIDTH 900 0
DWIDTH 27 0
BBX 23 33 2 0
BITMAP
007E00
00FE00
01EF00
03E780
03C380
038180
03C780
01EF80
00FF00
007E00
000000
003800
007C00
00FE00
01EF00
03C780
0783C0
0F01E0
1E00F0
3C0078
78003C
F0001E
E0000E
E0000E
FFFFFE
FFFFFE
FFFFFE
E0000E
E0000E
E0000E
E0000E
E0000E
E0000E
ENDCHAR
STARTCHAR 00C6
ENCODING 198
SWIDTH 1166 0
DWIDTH 35 0
BBX 31 22 2 0
BITMAP
001FFFFE
003FFFFE
007FFFFE
00FB8000
01F38000
03E38000
07C38000
0F838000
1F038000
3E038000
7C03FFFE
F803FFFE
F003FFFE
FFFF8000
FFFF8000
FFFF8000
E0038000
E0038000
E0038000
E003FFFE
E003FFFE
E003FFFE
ENDCHAR
STARTCHAR 00C7
ENCODING 199
SWIDTH 900 0
DWIDTH 27 0
BBX 23 30 2 -8
BITMAP
1FFFF0
3FFFF8
7FFFFC
E0000E
E0000E
E0000E
E0000E
E00000
E00000
E00000
E00000
E00000
E00000
E00000
E00000
E00000
E0000E
E0000E
E0000E
7FFFFC
3FFFF8
1FFFF8
000C00
000E00
000F00
000700
000300
018300
01FF00
00FC00
ENDCHAR
STARTCHAR 00C8
ENCODING 200
SWIDTH 833 0
DWIDTH 25 0
BBX 20 30 2 0
BITMAP
03E000
01F000
00F800
007C00
003E00
000E00
000000
000000
FFFFF0
FFFFF0
FFFFF0
E00000
E00000
E00000
E00000
E00000
E00000
E00000
FFFFF0
FFFFF0
FFFFF0
E00000
E00000
E00000
E00000
E00000
E00000
FFFFF0
FFFFF0
FFFFF0
ENDCHAR
STARTCHAR 00C9
ENCODING 201
SWIDTH 833 0
DWIDTH 25 0
BBX 20 30 2 0
BITMAP
000780
000F00
001E00
003C00
007800
00F000
000000
000000
FFFFF0
FFFFF0
FFFFF0
E00000
E00000
E00000
E00000
E00000
E00000
E00000
FFFFF0
FFFFF0
FFFFF0
E00000
E00000
E00000
E00000
E00000
E00000
FFFFF0
FFFFF0
FFFFF0
ENDCHAR
STARTCHAR 00CA
ENCODING 202
SWIDTH 833 0
DWIDTH 25 0
BBX 20 29 2 0
BITMAP
007000
00F800
01FC00
03DE00
038E00
000000
000000
FFFFF0
FFFFF0
FFFFF0
E00000
E00000
E00000
E00000
E00000
E00000
E00000
FFFFF0
FFFFF0
FFFFF0
E00000
E00000
E00000
E00000
E00000
E00000
FFFFF0
FFFFF0
FFFFF0
ENDCHAR
STARTCHAR 00CB
ENCODING 203
SWIDTH 833 0
DWIDTH 25 0
BBX 20 26 2 0
BITMAP
01C1C0
01C1C0
01C1C0
000000
FFFFF0
FFFFF0
FFFFF0
E00000
E00000
E00000
E00000
E00000
E00000
E00000
FFFFF0
FFFFF0
FFFFF0
E00000
E00000
E00000
E00000
E00000
E00000
FFFFF0
FFFFF0
FFFFF0
ENDCHAR
STARTCHAR 00CC
ENCODING 204
SWIDTH 566 0
DWIDTH 17 0
BBX 13 30 2 0
BITMAP
F800
7C00
3E00
1F00
0F80
0380
0000
0000
FFF8
FFF8
FFF8
0700
0700
0700
0700
0700
0700
0700
0700
0700
0700
0700
0700
0700
0700
0700
0700
FFF8
FFF8
FFF8
ENDCHAR
STARTCHAR 00CD
ENCODING 205
SWIDTH 566 0
DWIDTH 17 0
BBX 13 30 2 0
BITMAP
01E0
03C0
0780
0F00
1E00
3C00
0000
0000
FFF8
FFF8
FFF8
0700
0700
0700
0700
0700
0700
0700
0700
0700
0700
0700
0700
0700
0700
0700
0700
FFF8
FFF8
FFF8
ENDCHAR
STARTCHAR 00CE
ENCODING 206
SWIDTH 566 0
DWIDTH 17 0
BBX 13 29 2 0
BITMAP
0700
0F80
1FC0
3DE0
38E0
0000
0000
FFF8
FFF8
FFF8
0700
0700
0700
0700
0700
0700
0700
0700
0700
0700
0700
0700
0700
0700
0700
0700
FFF8
FFF8
FFF8
ENDCHAR
STARTCHAR 00CF
ENCODING 207
SWIDTH 566 0
DWIDTH 17 0
BBX 14 26 2 0
BITMAP
1C1C
1C1C
1C1C
0000
FFF8
FFF8
FFF8
0700
0700
0700
0700
0700
0700
0700
0700
0700
0700
0700
0700
0700
0700
0700
0700
FFF8
FFF8
FFF8
ENDCHAR
STARTCHAR 00D0
ENCODING 208
SWIDTH 1000 0
DWIDTH 30 0
BBX 25 22 2 0
BITMAP
3FFFFC00
3FFFFE00
3FFFFF00
38000380
38000380
38000380
38000380
38000380
38000380
38000380
FF800380
FF800380
FF800380
38000380
38000380
38000380
38000380
38000380
38000380
3FFFFF00
3FFFFE00
3FFFFC00
ENDCHAR
STARTCHAR 00D1
ENCODING 209
SWIDTH 966 0
DWIDTH 29 0
BBX 24 30 2 1
BITMAP
01E030
03F070
07F8F0
0F3DE0
0E1FC0
0C0F80
000000
000000
F00007
F80007
FC0007
FE0007
FE0007
EF0007
E78007
E3C007
E1E007
E0F007
E07807
E03C07
E01E07
E00F07
E00787
E003C7
E001E7
E000F7
E0007F
E0003F
E0001F
E0000F
ENDCHAR
STARTCHAR 00D2
ENCODING 210
SWIDTH 900 0
DWIDTH 27 0
BBX 23 30 2 0
BITMAP
07C000
03E000
01F000
00F800
007C00
001C00
000000
000000
1FFFF0
3FFFF8
7FFFFC
E0000E
E0000E
E0000E
E0000E
E0000E
E0000E
E0000E
E0000E
E0000E
E0000E
E0000E
E0000E
E0000E
E0000E
E0000E
E0000E
7FFFFC
3FFFF8
1FFFF0
ENDCHAR
STARTCHAR 00D3
ENCODING 211
SWIDTH 900 0
DWIDTH 27 0
BBX 23 30 2 0
BITMAP
000780
000F00
001E00
003C00
007800
00F000
000000
000000
1FFFF0
3FFFF8
7FFFFC
E0000E
E0000E
E0000E
E0000E
E0000E
E0000E
E0000E
E0000E
E0000E
E0000E
E0000E
E0000E
E0000E
E0000E
E0000E
E0000E
7FFFFC
3FFFF8
1FFFF0
ENDCHAR
STARTCHAR 00D4
ENCODING 212
SWIDTH 900 0
DWIDTH 27 0
BBX 23 29 2 0
BITMAP
003800
007C00
00FE00
01EF00
01C700
000000
000000
1FFFF0
3FFFF8
7FFFFC
E0000E
E0000E
E0000E
E0000E
E0000E
E0000E
E0000E
E0000E
E0000E
E0000E
E0000E
E0000E
E0000E
E0000E
E0000E
E0000E
7FFFFC
3FFFF8
1FFFF0
ENDCHAR
STARTCHAR 00D5
ENCODING 213
SWIDTH 900 0
DWIDTH 27 0
BBX 23 30 2 1
BITMAP
01E030
03F070
07F8F0
0F3DE0
0E1FC0
0C0F80
000000
000000
1FFFF0
3FFFF8
7FFFFC
E0000E
E0000E
E0000E
E0000E
E0000E
E0000E
E0000E
E0000E
E0000E
E0000E
E0000E
E0000E
E0000E
E0000E
E0000E
E0000E
7FFFFC
3FFFF8
1FFFF0
ENDCHAR
STARTCHAR 00D6
ENCODING 214
SWIDTH 900 0
DWIDTH 27 0
BBX 23 26 2 0
BITMAP
00E0E0
00E0E0
00E0E0
000000
1FFFF0
3FFFF8
7FFFFC
E0000E
E0000E
E0000E
E0000E
E0000E
E0000E
E0000E
E0000E
E0000E
E0000E
E0000E
E0000E
E0000E
E0000E
E0000E
E0000E
7FFFFC
3FFFF8
1FFFF0
ENDCHAR
STARTCHAR 00D7
ENCODING 215
SWIDTH 633 0
DWIDTH 19 0
BBX 15 14 2 4
BITMAP
F01E
F83E
FC7E
7EFC
3FF8
1FF0
0FE0
0FE0
1FF0
3FF8
7EFC
FC7E
F83E
F01E
ENDCHAR
STARTCHAR 00D8
ENCODING 216
SWIDTH 900 0
DWIDTH 27 0
BBX 23 22 2 0
BITMAP
1FFFF0
3FFFF8
7FFFFC
E000FE
E001FE
E003FE
E007EE
E00FCE
E01F8E
E03F0E
E07E0E
E0FC0E
E1F80E
E3F00E
E7E00E
EFC00E
FF800E
FF000E
FE000E
7FFFFC
3FFFF8
1FFFF0
ENDCHAR
STARTCHAR 00D9
ENCODING 217
SWIDTH 900 0
DWIDTH 27 0
BBX 23 30 2 0
BITMAP
07C000
03E000
01F000
00F800
007C00
001C00
000000
000000
E0000E
E0000E
E0000E
E0000E
E0000E
E0000E
E0000E
E0000E
E0000E
E0000E
E0000E
E0000E
E0000E
E0000E
E0000E
E0000E
E0000E
E0000E
E0000E
7FFFFC
3FFFF8
1FFFF0
ENDCHAR
STARTCHAR 00DA
ENCODING 218
SWIDTH 900 0
DWIDTH 27 0
BBX 23 30 2 0
BITMAP
000780
000F00
001E00
003C00
007800
00F000
000000
000000
E0000E
E0000E
E0000E
E0000E
E0000E
E0000E
E0000E
E0000E
E0000E
E0000E
E0000E
E0000E
E0000E
E0000E
E0000E
E0000E
E0000E
E0000E
E0000E
7FFFFC
3FFFF8
1FFFF0
ENDCHAR
STARTCHAR 00DB
ENCODING 219
SWIDTH 900 0
DWIDTH 27 0
BBX 23 29 2 0
BITMAP
003800
007C00
00FE00
01EF00
01C700
000000
000000
E0000E
E0000E
E0000E
E0000E
E0000E
E0000E
E0000E
E0000E
E0000E
E0000E
E0000E
E0000E
E0000E
E0000E
E0000E
E0000E
E0000E
E0000E
E0000E
7FFFFC
3FFFF8
1FFFF0
ENDCHAR
STARTCHAR 00DC
ENCODING 220
SWIDTH 900 0
DWIDTH 27 0
BBX 23 26 2 0
BITMAP
00E0E0
00E0E0
00E0E0
000000
E0000E
E0000E
E0000E
E0000E
E0000E
E0000E
E0000E
E0000E
E0000E
E0000E
E0000E
E0000E
E0000E
E0000E
E0000E
E0000E
E0000E
E0000E
E0000E
7FFFFC
3FFFF8
1FFFF0
ENDCHAR
STARTCHAR 00DD
ENCODING 221
SWIDTH 866 0
DWIDTH 26 0
BBX 22 31 2 0
BITMAP
000F00
001E00
003C00
007800
00F000
01E000
000000
000000
000000
E0001C
E0001C
E0001C
F0003C
7800F8
3C01F0
1E03E0
0F07C0
078F80
03DF00
01FC00
00F800
007000
007000
007000
007000
007000
007000
007000
007000
007000
007000
ENDCHAR
STARTCHAR 00DE
ENCODING 222
SWIDTH 900 0
DWIDTH 27 0
BBX 23 22 2 0
BITMAP
E00000
E00000
E00000
E00000
E00000
FFFFF0
FFFFF8
FFFFFC
E0000E
E0000E
E0000E
E0000E
E0000E
E0000E
E0000E
FFFFFE
EFFFF8
E7FFF0
E00000
E00000
E00000
E00000
ENDCHAR
STARTCHAR 00DF
ENCODING 223
SWIDTH 900 0
DWIDTH 27 0
BBX 23 26 2 -4
BITMAP
1FFFF0
3FFFF8
7FFFFC
E0000E
E0000E
E0000E
E0000E
E0001E
E0003E
E0007C
E1FFF8
E1FFF0
E1FFF8
E0003C
E0001E
E0000E
E0000E
E0000E
E0000E
E1FFFC
E1FFF8
E1FFF0
E00000
E00000
E00000
E00000
ENDCHAR
STARTCHAR 00E0
ENCODING 224
SWIDTH 900 0
DWIDTH 27 0
BBX 23 25 2 0
BITMAP
07C000
03E000
01F000
00F800
007C00
001C00
000000
000000
1FFFC2
3FFFE6
7FFFFE
E0000E
E0000E
E0000E
E0000E
E0000E
E0000E
E0000E
E0000E
E0000E
E0000E
E0000E
7FFFFE
3FFFE6
1FFFC2
ENDCHAR
STARTCHAR 00E1
ENCODING 225
SWIDTH 900 0
DWIDTH 27 0
BBX 23 25 2 0
BITMAP
000780
000F00
001E00
003C00
007800
00F000
000000
000000
1FFFC2
3FFFE6
7FFFFE
E0000E
E0000E
E0000E
E0000E
E0000E
E0000E
E0000E
E0000E
E0000E
E0000E
E0000E
7FFFFE
3FFFE6
1FFFC2
ENDCHAR
STARTCHAR 00E2
ENCODING 226
SWIDTH 900 0
DWIDTH 27 0
BBX 23 24 2 0
BITMAP
007000
00F800
01FC00
03DE00
038E00
000000
000000
1FFFC2
3FFFE6
7FFFFE
E0000E
E0000E
E0000E
E0000E
E0000E
E0000E
E0000E
E0000E
E0000E
E0000E
E0000E
7FFFFE
3FFFE6
1FFFC2
ENDCHAR
STARTCHAR 00E3
ENCODING 227
SWIDTH 900 0
DWIDTH 27 0
BBX 23 25 2 1
BITMAP
01E030
03F070
07F8F0
0F3DE0
0E1FC0
0C0F80
000000
000000
1FFFC2
3FFFE6
7FFFFE
E0000E
E0000E
E0000E
E0000E
E0000E
E0000E
E0000E
E0000E
E0000E
E0000E
E0000E
7FFFFE
3FFFE6
1FFFC2
ENDCHAR
STARTCHAR 00E4
ENCODING 228
SWIDTH 900 0
DWIDTH 27 0
BBX 23 21 2 0
BITMAP
01C1C0
01C1C0
01C1C0
000000
1FFFC2
3FFFE6
7FFFFE
E0000E
E0000E
E0000E
E0000E
E0000E
E0000E
E0000E
E0000E
E0000E
E0000E
E0000E
7FFFFE
3FFFE6
1FFFC2
ENDCHAR
STARTCHAR 00E5
ENCODING 229
SWIDTH 900 0
DWIDTH 27 0
BBX 23 29 2 0
BITMAP
007E00
00FE00
01EF00
03E780
03C380
038180
03C780
01EF80
00FF00
007E00
000000
000000
1FFFC2
3FFFE6
7FFFFE
E0000E
E0000E
E0000E
E0000E
E0000E
E0000E
E0000E
E0000E
E0000E
E0000E
E0000E
7FFFFE
3FFFE6
1FFFC2
ENDCHAR
STARTCHAR 00E6
ENCODING 230
SWIDTH 1100 0
DWIDTH 33 0
BBX 29 17 2 0
BITMAP
1FF8FFC0
3FFDFFE0
7FFFFFF0
E0070038
E0070038
E0070038
E0070038
E007FFF8
E007FFF8
E007FFF8
E0070000
E0070000
E0070000
E0070000
7FFFFFF8
3FFFFFF8
1FFFFFF8
ENDCHAR
STARTCHAR 00E7
ENCODING 231
SWIDTH 833 0
DWIDTH 25 0
BBX 21 25 2 -8
BITMAP
1FFFF8
3FFFF8
7FFFF8
E00000
E00000
E00000
E00000
E00000
E00000
E00000
E00000
E00000
E00000
E00000
7FFFF8
3FFFF8
1FFFF8
000C00
000E00
000F00
000700
000300
018300
01FF00
00FC00
ENDCHAR
STARTCHAR 00E8
ENCODING 232
SWIDTH 866 0
DWIDTH 26 0
BBX 22 25 2 0
BITMAP
07C000
03E000
01F000
00F800
007C00
001C00
000000
000000
1FFFE0
3FFFF0
7FFFF8
E0001C
E0001C
E0001C
E0001C
FFFFFC
FFFFFC
FFFFFC
E00000
E00000
E00000
E00000
7FFFFC
3FFFFC
1FFFFC
ENDCHAR
STARTCHAR 00E9
ENCODING 233
SWIDTH 866 0
DWIDTH 26 0
BBX 22 25 2 0
BITMAP
000780
000F00
001E00
003C00
007800
00F000
000000
000000
1FFFE0
3FFFF0
7FFFF8
E0001C
E0001C
E0001C
E0001C
FFFFFC
FFFFFC
FFFFFC
E00000
E00000
E00000
E00000
7FFFFC
3FFFFC
1FFFFC
ENDCHAR
STARTCHAR 00EA
ENCODING 234
SWIDTH 866 0
DWIDTH 26 0
BBX 22 24 2 0
BITMAP
003800
007C00
00FE00
01EF00
01C700
000000
000000
1FFFE0
3FFFF0
7FFFF8
E0001C
E0001C
E0001C
E0001C
FFFFFC
FFFFFC
FFFFFC
E00000
E00000
E00000
E00000
7FFFFC
3FFFFC
1FFFFC
ENDCHAR
STARTCHAR 00EB
ENCODING 235
SWIDTH 866 0
DWIDTH 26 0
BBX 22 21 2 0
BITMAP
00E0E0
00E0E0
00E0E0
000000
1FFFE0
3FFFF0
7FFFF8
E0001C
E0001C
E0001C
E0001C
FFFFFC
FFFFFC
FFFFFC
E00000
E00000
E00000
E00000
7FFFFC
3FFFFC
1FFFFC
ENDCHAR
STARTCHAR 00EC
ENCODING 236
SWIDTH 433 0
DWIDTH 13 0
BBX 9 25 2 0
BITMAP
F800
7C00
3E00
1F00
0F80
0380
0000
0000
3800
3800
3800
3800
3800
3800
3800
3800
3800
3800
3800
3800
3800
3800
1F00
0F00
0700
ENDCHAR
STARTCHAR 00ED
ENCODING 237
SWIDTH 466 0
DWIDTH 14 0
BBX 9 25 2 0
BITMAP
0780
0F00
1E00
3C00
7800
F000
0000
0000
E000
E000
E000
E000
E000
E000
E000
E000
E000
E000
E000
E000
E000
E000
7C00
3C00
1C00
ENDCHAR
STARTCHAR 00EE
ENCODING 238
SWIDTH 433 0
DWIDTH 13 0
BBX 9 24 2 0
BITMAP
1C00
3E00
7F00
F780
E380
0000
0000
3800
3800
3800
3800
3800
3800
3800
3800
3800
3800
3800
3800
3800
3800
1F00
0F00
0700
ENDCHAR
STARTCHAR 00EF
ENCODING 239
SWIDTH 533 0
DWIDTH 16 0
BBX 11 21 3 0
BITMAP
E0E0
E0E0
E0E0
0000
3800
3800
3800
3800
3800
3800
3800
3800
3800
3800
3800
3800
3800
3800
1F00
0F00
0700
ENDCHAR
STARTCHAR 00F0
ENCODING 240
SWIDTH 900 0
DWIDTH 27 0
BBX 23 22 2 0
BITMAP
007800
003C00
001E00
000F00
00FFFE
00FFFE
00FFFE
0003F0
0001F8
0000FC
1FFFFE
3FFFFE
7FFFFE
E0000E
E0000E
E0000E
E0000E
E0000E
E0000E
7FFFFC
3FFFF8
1FFFF0
ENDCHAR
STARTCHAR 00F1
ENCODING 241
SWIDTH 900 0
DWIDTH 27 0
BBX 22 25 2 1
BITMAP
00780C
00FC1C
01FE3C
03CF78
0387F0
0303E0
000000
000000
87FFE0
CFFFF0
FFFFF8
E0001C
E0001C
E0001C
E0001C
E0001C
E0001C
E0001C
E0001C
E0001C
E0001C
E0001C
E0001C
E0001C
E0001C
ENDCHAR
STARTCHAR 00F2
ENCODING 242
SWIDTH 900 0
DWIDTH 27 0
BBX 23 25 2 0
BITMAP
07C000
03E000
01F000
00F800
007C00
001C00
000000
000000
1FFFF0
3FFFF8
7FFFFC
E0000E
E0000E
E0000E
E0000E
E0000E
E0000E
E0000E
E0000E
E0000E
E0000E
E0000E
7FFFFC
3FFFF8
1FFFF0
ENDCHAR
STARTCHAR 00F3
ENCODING 243
SWIDTH 900 0
DWIDTH 27 0
BBX 23 25 2 0
BITMAP
000780
000F00
001E00
003C00
007800
00F000
000000
000000
1FFFF0
3FFFF8
7FFFFC
E0000E
E0000E
E0000E
E0000E
E0000E
E0000E
E0000E
E0000E
E0000E
E0000E
E0000E
7FFFFC
3FFFF8
1FFFF0
ENDCHAR
STARTCHAR 00F4
ENCODING 244
SWIDTH 900 0
DWIDTH 27 0
BBX 23 24 2 0
BITMAP
003800
007C00
00FE00
01EF00
01C700
000000
000000
1FFFF0
3FFFF8
7FFFFC
E0000E
E0000E
E0000E
E0000E
E0000E
E0000E
E0000E
E0000E
E0000E
E0000E
E0000E
7FFFFC
3FFFF8
1FFFF0
ENDCHAR
STARTCHAR 00F5
ENCODING 245
SWIDTH 900 0
DWIDTH 27 0
BBX 23 25 2 1
BITMAP
01E030
03F070
07F8F0
0F3DE0
0E1FC0
0C0F80
000000
000000
1FFFF0
3FFFF8
7FFFFC
E0000E
E0000E
E0000E
E0000E
E0000E
E0000E
E0000E
E0000E
E0000E
E0000E
E0000E
7FFFFC
3FFFF8
1FFFF0
ENDCHAR
STARTCHAR 00F6
ENCODING 246
SWIDTH 900 0
DWIDTH 27 0
BBX 23 21 2 0
BITMAP
00E0E0
00E0E0
00E0E0
000000
1FFFF0
3FFFF8
7FFFFC
E0000E
E0000E
E0000E
E0000E
E0000E
E0000E
E0000E
E0000E
E0000E
E0000E
E0000E
7FFFFC
3FFFF8
1FFFF0
ENDCHAR
STARTCHAR 00F7
ENCODING 247
SWIDTH 466 0
DWIDTH 14 0
BBX 11 17 1 2
BITMAP
0E00
0E00
0E00
0000
0000
0000
0000
FFE0
FFE0
FFE0
0000
0000
0000
0000
0E00
0E00
0E00
ENDCHAR
STARTCHAR 00F8
ENCODING 248
SWIDTH 866 0
DWIDTH 26 0
BBX 22 17 2 0
BITMAP
1FFFE0
3FFFF0
7FFFF8
E003DC
E0079C
E00F1C
E01E1C
E03C1C
E0781C
E0F01C
E1E01C
E3C01C
E7801C
EF001C
7FFFF8
3FFFF0
1FFFE0
ENDCHAR
STARTCHAR 00F9
ENCODING 249
SWIDTH 866 0
DWIDTH 26 0
BBX 22 25 2 0
BITMAP
07C000
03E000
01F000
00F800
007C00
001C00
000000
000000
E0001C
E0001C
E0001C
E0001C
E0001C
E0001C
E0001C
E0001C
E0001C
E0001C
E0001C
E0001C
E0001C
E0001C
7FFFFC
3FFFCC
1FFF84
ENDCHAR
STARTCHAR 00FA
ENCODING 250
SWIDTH 866 0
DWIDTH 26 0
BBX 22 25 2 0
BITMAP
000780
000F00
001E00
003C00
007800
00F000
000000
000000
E0001C
E0001C
E0001C
E0001C
E0001C
E0001C
E0001C
E0001C
E0001C
E0001C
E0001C
E0001C
E0001C
E0001C
7FFFFC
3FFFCC
1FFF84
ENDCHAR
STARTCHAR 00FB
ENCODING 251
SWIDTH 866 0
DWIDTH 26 0
BBX 22 24 2 0
BITMAP
003800
007C00
00FE00
01EF00
01C700
000000
000000
E0001C
E0001C
E0001C
E0001C
E0001C
E0001C
E0001C
E0001C
E0001C
E0001C
E0001C
E0001C
E0001C
E0001C
7FFFFC
3FFFCC
1FFF84
ENDCHAR
STARTCHAR 00FC
ENCODING 252
SWIDTH 866 0
DWIDTH 26 0
BBX 22 21 2 0
BITMAP
00E0E0
00E0E0
00E0E0
000000
E0001C
E0001C
E0001C
E0001C
E0001C
E0001C
E0001C
E0001C
E0001C
E0001C
E0001C
E0001C
E0001C
E0001C
7FFFFC
3FFFCC
1FFF84
ENDCHAR
STARTCHAR 00FD
ENCODING 253
SWIDTH 866 0
DWIDTH 26 0
BBX 22 32 2 -7
BITMAP
000780
000F00
001E00
003C00
007800
00F000
000000
000000
E0001C
E0001C
E0001C
E0001C
E0001C
E0001C
E0001C
E0001C
E0001C
E0001C
E0001C
E0001C
E0001C
E0001C
7FFFFC
3FFFDC
1FFF9C
00001C
00001C
00001C
00001C
0FFFF8
0FFFF0
0FFFE0
ENDCHAR
STARTCHAR 00FE
ENCODING 254
SWIDTH 900 0
DWIDTH 27 0
BBX 23 29 2 -7
BITMAP
E00000
E00000
E00000
E00000
E00000
E3FFF0
E7FFF8
EFFFFC
F0000E
E0000E
E0000E
E0000E
E0000E
E0000E
E0000E
E0000E
E0000E
E0000E
E0000E
FFFFFC
E7FFF8
E3FFF0
E00000
E00000
E00000
E00000
E00000
E00000
E00000
ENDCHAR
STARTCHAR 00FF
ENCODING 255
SWIDTH 866 0
DWIDTH 26 0
BBX 22 28 2 -7
BITMAP
00E0E0
00E0E0
00E0E0
000000
E0001C
E0001C
E0001C
E0001C
E0001C
E0001C
E0001C
E0001C
E0001C
E0001C
E0001C
E0001C
E0001C
E0001C
7FFFFC
3FFFDC
1FFF9C
00001C
00001C
00001C
00001C
0FFFF8
0FFFF0
0FFFE0
ENDCHAR
STARTCHAR 0131
ENCODING 305
SWIDTH 366 0
DWIDTH 11 0
BBX 7 17 2 0
BITMAP
E0
E0
E0
E0
E0
E0
E0
E0
E0
E0
E0
E0
E0
E0
7E
3E
1E
ENDCHAR
STARTCHAR 0141
ENCODING 321
SWIDTH 900 0
DWIDTH 27 0
BBX 23 23 2 0
BITMAP
380000
380000
380000
380000
380000
380000
380000
380000
380000
380000
380000
FF8000
FF8000
FF8000
380000
380000
380000
380000
380000
380000
3FFFFE
3FFFFE
3FFFFE
ENDCHAR
STARTCHAR 0142
ENCODING 322
SWIDTH 433 0
DWIDTH 13 0
BBX 9 22 2 0
BITMAP
3800
3800
3800
3800
3800
3800
3800
3800
3800
3800
FF80
FF80
FF80
3800
3800
3800
3800
3800
3800
1F80
0F80
0780
ENDCHAR
STARTCHAR 0152
ENCODING 338
SWIDTH 1100 0
DWIDTH 33 0
BBX 29 22 2 0
BITMAP
1FFFFFF8
3FFFFFF8
7FFFFFF8
E0070000
E0070000
E0070000
E0070000
E0070000
E0070000
E0070000
E007FFF8
E007FFF8
E007FFF8
E0070000
E0070000
E0070000
E0070000
E0070000
E0070000
7FFFFFF8
3FFFFFF8
1FFFFFF8
ENDCHAR
STARTCHAR 0153
ENCODING 339
SWIDTH 1100 0
DWIDTH 33 0
BBX 29 17 2 0
BITMAP
1FF8FFC0
3FFDFFE0
7FFFFFF0
E0070038
E0070038
E0070038
E0070038
E007FFF8
E007FFF8
E007FFF8
E0070000
E0070000
E0070000
E0070000
7FFFFFF8
3FFDFFF8
1FF8FFF8
ENDCHAR
STARTCHAR 0160
ENCODING 352
SWIDTH 900 0
DWIDTH 27 0
BBX 23 29 2 0
BITMAP
01C700
01C700
01EF00
00FE00
007C00
003800
000000
1FFFF0
3FFFF8
7FFFFC
E0000E
E0000E
E0000E
E0000E
E00000
E00000
E00000
7FFFF0
3FFFF8
1FFFFC
00000E
00000E
00000E
E0000E
E0000E
E0000E
7FFFFC
3FFFF8
1FFFF0
ENDCHAR
STARTCHAR 0161
ENCODING 353
SWIDTH 833 0
DWIDTH 25 0
BBX 20 24 2 0
BITMAP
01C700
01C700
01EF00
00FE00
007C00
003800
000000
1FFFF0
3FFFF0
7FFFF0
E00000
E00000
E00000
E00000
7FFF80
3FFFC0
1FFFE0
000070
000070
000070
000070
FFFFE0
FFFFC0
FFFF80
ENDCHAR
STARTCHAR 0178
ENCODING 376
SWIDTH 866 0
DWIDTH 26 0
BBX 22 27 2 0
BITMAP
00E0E0
00E0E0
00E0E0
000000
000000
E0001C
E0001C
E0001C
F0003C
7800F8
3C01F0
1E03E0
0F07C0
078F80
03DF00
01FC00
00F800
007000
007000
007000
007000
007000
007000
007000
007000
007000
007000
ENDCHAR
STARTCHAR 017D
ENCODING 381
SWIDTH 800 0
DWIDTH 24 0
BBX 19 30 2 0
BITMAP
038E00
038E00
03DE00
01FC00
00F800
007000
000000
000000
FFFFE0
FFFFE0
FFFFE0
0001E0
0003C0
000780
000F00
001E00
003C00
007800
00F000
01E000
03C000
078000
0F0000
1E0000
3C0000
780000
F00000
FFFFE0
FFFFE0
FFFFE0
ENDCHAR
STARTCHAR 017E
ENCODING 382
SWIDTH 833 0
DWIDTH 25 0
BBX 20 24 2 0
BITMAP
038E00
038E00
03DE00
01FC00
00F800
007000
000000
FFFFF0
FFFFF0
FFFFF0
000070
000070
000070
000070
1FFFE0
3FFFC0
7FFF80
E00000
E00000
E00000
E00000
FFFFF0
FFFFF0
FFFFF0
ENDCHAR
STARTCHAR 0192
ENCODING 402
SWIDTH 700 0
DWIDTH 21 0
BBX 17 26 2 -4
BITMAP
003F80
007F80
00FF80
01C000
01C000
01C000
01C000
01C000
01C000
0FFF80
0FFF80
0FFF80
01C000
01C000
01C000
01C000
01C000
01C000
01C000
01C000
01C000
01C000
01C000
FF8000
FF0000
FE0000
ENDCHAR
STARTCHAR 02C6
ENCODING 710
SWIDTH 466 0
DWIDTH 14 0
BBX 9 5 3 19
BITMAP
3C00
7E00
FF00
FF80
E780
ENDCHAR
STARTCHAR 02C7
ENCODING 711
SWIDTH 433 0
DWIDTH 13 0
BBX 9 6 3 23
BITMAP
C380
E780
FF00
7E00
3C00
1C00
ENDCHAR
STARTCHAR 02C9
ENCODING 713
SWIDTH 766 0
DWIDTH 23 0
BBX 10 3 3 22
BITMAP
FFC0
FFC0
FFC0
ENDCHAR
STARTCHAR 02D8
ENCODING 728
SWIDTH 633 0
DWIDTH 19 0
BBX 13 5 3 20
BITMAP
C018
C038
FFF0
7FE0
3FC0
ENDCHAR
STARTCHAR 02D9
ENCODING 729
SWIDTH 266 0
DWIDTH 8 0
BBX 3 3 3 23
BITMAP
E0
E0
E0
ENDCHAR
STARTCHAR 02DA
ENCODING 730
SWIDTH 933 0
DWIDTH 28 0
BBX 11 10 3 19
BITMAP
1F00
3F80
7BC0
F1E0
E0E0
E0E0
F1E0
7BE0
3F80
1F00
ENDCHAR
STARTCHAR 02DB
ENCODING 731
SWIDTH 966 0
DWIDTH 29 0
BBX 9 6 8 -8
BITMAP
F000
F000
E000
F180
7F80
3F00
ENDCHAR
STARTCHAR 02DC
ENCODING 732
SWIDTH 700 0
DWIDTH 21 0
BBX 15 6 3 19
BITMAP
3E02
7F06
FF9E
F3FE
E1FC
C0F8
ENDCHAR
STARTCHAR 02DD
ENCODING 733
SWIDTH 833 0
DWIDTH 25 0
BBX 16 7 3 23
BITMAP
078F
0F1E
1E3C
3C78
3CF0
79F0
F1E0
ENDCHAR
STARTCHAR 0394
ENCODING 916
SWIDTH 900 0
DWIDTH 27 0
BBX 23 16 2 0
BITMAP
003800
007C00
00FE00
01EF00
03C780
0783C0
0F01E0
1E00F0
3E0078
7C003C
F8001E
F0000E
E00006
FFFFFE
FFFFFE
FFFFFE
ENDCHAR
STARTCHAR 03A9
ENCODING 937
SWIDTH 900 0
DWIDTH 27 0
BBX 23 22 2 0
BITMAP
1FFFF0
3FFFF8
7FFFFC
E0000E
E0000E
E0000E
E0000E
E0000E
E0000E
E0000E
E0000E
E0000E
F0001E
7C003C
3E0078
1E00F0
0E00E0
0E00E0
0E00E0
FC007E
F8003E
F0001E
ENDCHAR
STARTCHAR 03BC
ENCODING 956
SWIDTH 900 0
DWIDTH 27 0
BBX 23 24 2 -7
BITMAP
E0000E
E0000E
E0000E
E0000E
E0000E
E0000E
E0000E
E0000E
E0000E
E0000E
E0000E
E0000E
E0000E
E0000E
FFFFFE
E7FFE6
E3FFC2
E00000
E00000
E00000
E00000
E00000
E00000
E00000
ENDCHAR
STARTCHAR 03C0
ENCODING 960
SWIDTH 700 0
DWIDTH 21 0
BBX 17 17 2 0
BITMAP
FFFF80
FFFF80
FFFF80
0E3800
0E3800
0E3800
0E3800
0E3800
0E3800
0E3800
0E3800
0E3800
0E3800
0E3800
0E3800
0E3800
0E3800
ENDCHAR
STARTCHAR 2010
ENCODING 8208
SWIDTH 466 0
DWIDTH 14 0
BBX 10 3 2 9
BITMAP
FFC0
FFC0
FFC0
ENDCHAR
STARTCHAR 2013
ENCODING 8211
SWIDTH 800 0
DWIDTH 24 0
BBX 20 3 2 9
BITMAP
FFFFF0
FFFFF0
FFFFF0
ENDCHAR
STARTCHAR 2014
ENCODING 8212
SWIDTH 966 0
DWIDTH 29 0
BBX 24 3 2 9
BITMAP
FFFFFF
FFFFFF
FFFFFF
ENDCHAR
STARTCHAR 2018
ENCODING 8216
SWIDTH 233 0
DWIDTH 7 0
BBX 3 6 2 16
BITMAP
E0
E0
E0
80
80
40
ENDCHAR
STARTCHAR 2019
ENCODING 8217
SWIDTH 233 0
DWIDTH 7 0
BBX 3 6 2 16
BITMAP
E0
E0
60
20
20
20
ENDCHAR
STARTCHAR 201A
ENCODING 8218
SWIDTH 233 0
DWIDTH 7 0
BBX 3 5 2 -2
BITMAP
E0
E0
60
20
60
ENDCHAR
STARTCHAR 201C
ENCODING 8220
SWIDTH 433 0
DWIDTH 13 0
BBX 9 6 2 16
BITMAP
E380
E380
E380
C300
8200
4100
ENDCHAR
STARTCHAR 201D
ENCODING 8221
SWIDTH 433 0
DWIDTH 13 0
BBX 9 6 2 16
BITMAP
E380
E380
6180
2180
2080
4100
ENDCHAR
STARTCHAR 201E
ENCODING 8222
SWIDTH 433 0
DWIDTH 13 0
BBX 9 5 2 -3
BITMAP
E380
E380
6180
2080
6180
ENDCHAR
STARTCHAR 2020
ENCODING 8224
SWIDTH 633 0
DWIDTH 19 0
BBX 15 20 2 0
BITMAP
0380
0380
0380
0380
0380
FFFE
FFFE
FFFE
0380
0380
0380
0380
0380
0380
0380
0380
0380
0380
0380
0380
ENDCHAR
STARTCHAR 2021
ENCODING 8225
SWIDTH 633 0
DWIDTH 19 0
BBX 15 18 2 0
BITMAP
0380
0380
0380
FFFE
FFFE
FFFE
0380
0380
0380
0380
FFFE
FFFE
FFFE
0380
0380
0380
0380
0380
ENDCHAR
STARTCHAR 2022
ENCODING 8226
SWIDTH 466 0
DWIDTH 14 0
BBX 10 10 2 6
BITMAP
1E00
3F00
7F80
FFC0
FFC0
FFC0
FFC0
7F80
3F00
1E00
ENDCHAR
STARTCHAR 2026
ENCODING 8230
SWIDTH 700 0
DWIDTH 21 0
BBX 17 3 2 0
BITMAP
E1C380
E1C380
E1C380
ENDCHAR
STARTCHAR 2030
ENCODING 8240
SWIDTH 1266 0
DWIDTH 38 0
BBX 33 22 2 0
BITMAP
1E00700000
3F00700000
7380700000
E1C0F00000
C0C1F00000
C0C3E00000
C0C7C00000
E1CF800000
739F000000
3F3E000000
1E7C000000
00F8000000
01F1E03E00
01E3F07F00
03C738E300
078E1DC180
0F0C0D8180
1E0C0D8180
3C0E1DC380
780738E700
7003F07E00
7001E03C00
ENDCHAR
STARTCHAR 2039
ENCODING 8249
SWIDTH 366 0
DWIDTH 11 0
BBX 7 10 2 6
BITMAP
0E
1E
3E
7C
F8
F0
78
3C
1E
0E
ENDCHAR
STARTCHAR 203A
ENCODING 8250
SWIDTH 366 0
DWIDTH 11 0
BBX 7 10 2 6
BITMAP
E0
F0
F8
7C
3C
3E
7C
F8
F0
E0
ENDCHAR
STARTCHAR 2044
ENCODING 8260
SWIDTH 766 0
DWIDTH 23 0
BBX 18 23 2 0
BITMAP
0001C0
0001C0
0001C0
0001C0
0003C0
000780
000F00
001E00
003C00
007800
00F000
01E000
03C000
078000
0F0000
1E0000
3C0000
780000
F00000
E00000
E00000
E00000
E00000
ENDCHAR
STARTCHAR 2122
ENCODING 8482
SWIDTH 1266 0
DWIDTH 38 0
BBX 33 15 2 7
BITMAP
FFFEF00780
FFFEF80F80
FFFEFC0F80
0380FE1F80
0380EF3F80
0380E77B80
0380E3F380
0380E1E380
0380E0C380
0380E00380
0380E00380
0380E00380
0380E00380
0380E00380
0380E00380
ENDCHAR
STARTCHAR 2126
ENCODING 8486
SWIDTH 900 0
DWIDTH 27 0
BBX 23 22 2 0
BITMAP
1FFFF0
3FFFF8
7FFFFC
E0000E
E0000E
E0000E
E0000E
E0000E
E0000E
E0000E
E0000E
E0000E
F0001E
7C003C
3E0078
1E00F0
0E00E0
0E00E0
0E00E0
FC007E
F8003E
F0001E
ENDCHAR
STARTCHAR 2202
ENCODING 8706
SWIDTH 900 0
DWIDTH 27 0
BBX 23 22 2 0
BITMAP
00F800
007C00
003E00
001F00
000F80
0007C0
0003E0
0003F0
0001F8
0000FC
1FFFFE
3FFFFE
7FFFFE
E0000E
E0000E
E0000E
E0000E
E0000E
E0000E
7FFFFC
3FFFF8
1FFFF0
ENDCHAR
STARTCHAR 2206
ENCODING 8710
SWIDTH 900 0
DWIDTH 27 0
BBX 23 16 2 0
BITMAP
003800
007C00
00FE00
01EF00
03C780
0783C0
0F01E0
1E00F0
3E0078
7C003C
F8001E
F0000E
E00006
FFFFFE
FFFFFE
FFFFFE
ENDCHAR
STARTCHAR 220F
ENCODING 8719
SWIDTH 700 0
DWIDTH 21 0
BBX 17 22 2 0
BITMAP
FFFF80
FFFF80
FFFF80
0E3800
0E3800
0E3800
0E3800
0E3800
0E3800
0E3800
0E3800
0E3800
0E3800
0E3800
0E3800
0E3800
0E3800
0E3800
0E3800
0E3800
0E3800
0E3800
ENDCHAR
STARTCHAR 2211
ENCODING 8721
SWIDTH 800 0
DWIDTH 24 0
BBX 20 22 2 0
BITMAP
1FFFF0
3FFFF0
7FFFF0
E00000
E00000
E00000
F00000
780000
3C0000
1E0000
0FFE00
0FFE00
1FFE00
3C0000
780000
F00000
E00000
E00000
E00000
7FFFF0
3FFFF0
1FFFF0
ENDCHAR
STARTCHAR 2212
ENCODING 8722
SWIDTH 466 0
DWIDTH 14 0
BBX 10 3 2 9
BITMAP
FFC0
FFC0
FFC0
ENDCHAR
STARTCHAR 2219
ENCODING 8729
SWIDTH 233 0
DWIDTH 7 0
BBX 3 3 2 9
BITMAP
E0
E0
E0
ENDCHAR
STARTCHAR 221A
ENCODING 8730
SWIDTH 800 0
DWIDTH 24 0
BBX 20 22 2 0
BITMAP
1FFFF0
3FFFF0
7FFFF0
E00000
E00000
E00000
F00000
780000
3C0000
1E0000
0FFFF0
0FFFF0
1FFFF0
3C0000
780000
F00000
E00000
E00000
E00000
7FFFF0
3FFFF0
1FFFF0
ENDCHAR
STARTCHAR 221E
ENCODING 8734
SWIDTH 866 0
DWIDTH 26 0
BBX 22 14 2 4
BITMAP
1FC7E0
3FFFF0
7FFFFC
E0701C
E0701C
E0701C
E0701C
E0701C
E0701C
E0701C
E0701C
7FFFFC
3FFFF0
1FCFE0
ENDCHAR
STARTCHAR 222B
ENCODING 8747
SWIDTH 700 0
DWIDTH 21 0
BBX 17 26 2 -4
BITMAP
003F80
007F80
00FF80
01C000
01C000
01C000
01C000
01C000
01C000
01C000
01C000
01C000
01C000
01C000
01C000
01C000
01C000
01C000
01C000
01C000
01C000
01C000
01C000
FF8000
FF0000
FE0000
ENDCHAR
STARTCHAR 2248
ENCODING 8776
SWIDTH 766 0
DWIDTH 23 0
BBX 18 15 2 5
BITMAP
0F81C0
1FC3C0
3FE780
79FF00
F07E00
E03C00
000000
000000
000000
0F81C0
1FC3C0
3DE7C0
78FF80
F07E00
E03C00
ENDCHAR
STARTCHAR 2260
ENCODING 8800
SWIDTH 733 0
DWIDTH 22 0
BBX 17 14 2 4
BITMAP
000780
000F00
3FFF00
3FFF00
3FFF00
007800
00F000
03E000
07C000
3FFF00
3FFF00
3FFF00
7C0000
F80000
ENDCHAR
STARTCHAR 2264
ENCODING 8804
SWIDTH 566 0
DWIDTH 17 0
BBX 13 16 2 0
BITMAP
01C0
03C0
07C0
0F80
1F00
3E00
1F00
0F80
07C0
03C0
0000
0000
0000
FFF8
FFF8
FFF8
ENDCHAR
STARTCHAR 2265
ENCODING 8805
SWIDTH 566 0
DWIDTH 17 0
BBX 13 16 2 0
BITMAP
1C00
1E00
1F00
1F80
0FC0
07C0
0FC0
1F80
1F00
1E00
0000
0000
0000
FFF8
FFF8
FFF8
ENDCHAR
STARTCHAR 22F2
ENCODING 8946
SWIDTH 766 0
DWIDTH 23 0
BBX 18 15 2 5
BITMAP
0F81C0
1FC3C0
3FE780
79FF00
F07E00
E03C00
000000
000000
000000
0F81C0
1FC3C0
3DE7C0
78FF80
F07E00
E03C00
ENDCHAR
STARTCHAR 25CA
ENCODING 9674
SWIDTH 700 0
DWIDTH 21 0
BBX 17 14 2 4
BITMAP
01E000
03F000
07F800
0F3C00
3E1E00
7C0F00
F80780
F80780
7C0F00
3E1E00
1F3C00
0FF800
07F000
01E000
ENDCHAR
STARTCHAR F000
ENCODING 61440
SWIDTH 633 0
DWIDTH 19 0
BBX 14 15 3 2
BITMAP
8004
8008
EC38
6B30
F778
7770
7770
B750
5FE0
3FE0
0700
0700
1A90
6270
0200
ENDCHAR
STARTCHAR F001
ENCODING 61441
SWIDTH 1000 0
DWIDTH 30 0
BBX 25 22 2 0
BITMAP
01FFFC00
03FFFC00
07FFFC00
0E000000
0E000000
0E001C00
0E001C00
0E001C00
0E001C00
FFFF9C00
FFFF9C00
FFFF9C00
0E001C00
0E001C00
0E001C00
0E001C00
0E001C00
0E001C00
0E001C00
0E000F80
0E000780
0E000380
ENDCHAR
STARTCHAR F002
ENCODING 61442
SWIDTH 1000 0
DWIDTH 30 0
BBX 25 22 2 0
BITMAP
01FFFC00
03FFFC00
07FFFC00
0E001C00
0E001C00
0E001C00
0E001C00
0E001C00
0E001C00
FFFF9C00
FFFF9C00
FFFF9C00
0E001C00
0E001C00
0E001C00
0E001C00
0E001C00
0E001C00
0E001C00
0E000F80
0E000780
0E000380
ENDCHAR
ENDFONT
